<svg width="30" height="30" viewBox="0 0 30 30" fill="none" xmlns="http://www.w3.org/2000/svg">
<path fill-rule="evenodd" clip-rule="evenodd" d="M6.25 3.75H23.75C25.125 3.75 26.25 4.875 26.25 6.25V23.75C26.25 25.125 25.125 26.25 23.75 26.25H6.25C4.875 26.25 3.75 25.125 3.75 23.75V20C3.75 19.3125 4.3125 18.75 5 18.75C5.6875 18.75 6.25 19.3125 6.25 20V22.5C6.25 23.1875 6.8125 23.75 7.5 23.75H22.5C23.1875 23.75 23.75 23.1875 23.75 22.5V7.5C23.75 6.8125 23.1875 6.25 22.5 6.25H7.5C6.8125 6.25 6.25 6.8125 6.25 7.5V10C6.25 10.6875 5.6875 11.25 5 11.25C4.3125 11.25 3.75 10.6875 3.75 10V6.25C3.75 4.875 4.8625 3.75 6.25 3.75ZM15.25 20.3625C14.7625 20.85 13.975 20.85 13.4875 20.3625C13.0125 19.8875 13 19.0875 13.4875 18.6L15.8375 16.25H5C4.3125 16.25 3.75 15.6875 3.75 15C3.75 14.3125 4.3125 13.75 5 13.75H15.8375L13.4875 11.3875C13 10.9 13 10.1125 13.4875 9.625C13.721 9.39093 14.0381 9.25939 14.3688 9.25939C14.6994 9.25939 15.0165 9.39093 15.25 9.625L19.7375 14.1125C20.225 14.6 20.225 15.3875 19.7375 15.875L15.25 20.3625Z" fill="black" fill-opacity="0.54"/>
</svg>
