<svg width="30" height="30" viewBox="0 0 30 30" fill="none" xmlns="http://www.w3.org/2000/svg">
<g opacity="0.36">
<path fill-rule="evenodd" clip-rule="evenodd" d="M17.5 6.875C17.5 5.5 16.375 4.375 15 4.375H13.75V3.125C13.75 2.4375 13.1875 1.875 12.5 1.875H7.5C6.8125 1.875 6.25 2.4375 6.25 3.125V4.375H5C3.625 4.375 2.5 5.5 2.5 6.875V25.625C2.5 27 3.625 28.125 5 28.125H15C16.375 28.125 17.5 27 17.5 25.625H25C26.375 25.625 27.5 24.5 27.5 23.125V9.375C27.5 8 26.375 6.875 25 6.875H17.5ZM12.5 23.125V20.625H15V23.125H12.5ZM12.5 9.375V11.875H15V9.375H12.5ZM20 23.125H17.5V20.625H20V23.125ZM17.5 11.875H20V9.375H17.5V11.875ZM25 23.125H22.5V20.625H25V23.125ZM22.5 11.875H25V9.375H22.5V11.875Z" fill="black"/>
</g>
</svg>
